Coordinates
version=1
nRows=13
nColumns=40
inDegrees=yes

Units are S.I. units (second, meters, Newtons, ...)
If the header above contains a line with 'inDegrees', this indicates whether rotational values are in degrees (yes) or radians (no).

endheader
time	pelvis_tilt	pelvis_list	pelvis_rotation	pelvis_tx	pelvis_ty	pelvis_tz	hip_flexion_r	hip_adduction_r	hip_rotation_r	knee_angle_r	knee_angle_r_beta	ankle_angle_r	subtalar_angle_r	mtp_angle_r	hip_flexion_l	hip_adduction_l	hip_rotation_l	knee_angle_l	knee_angle_l_beta	ankle_angle_l	subtalar_angle_l	mtp_angle_l	lumbar_extension	lumbar_bending	lumbar_rotation	arm_flex_r	arm_add_r	arm_rot_r	elbow_flex_r	pro_sup_r	wrist_flex_r	wrist_dev_r	arm_flex_l	arm_add_l	arm_rot_l	elbow_flex_l	pro_sup_l	wrist_flex_l	wrist_dev_l
      8.97500000	      1.50668213	     -3.22263044	   -171.96332666	      0.29443118	      0.91838058	     -0.60116384	     20.30739305	    -15.02396011	    -22.13340757	     22.30330046	      0.38926603	      0.58771175	      0.00000000	      0.00000000	     21.64786267	     -1.65051986	     -5.62478347	     20.54792982	      0.35862903	     -0.73895676	      0.00000000	      0.00000000	    -30.60293192	      2.72721942	    -10.07945884	      0.00000000	    -12.63828291	      0.00000000	     74.76492216	     45.08660664	      0.00000000	      0.00000000	      0.00000000	    -12.63828291	      0.00000000	     74.76492216	     45.08660664	      0.00000000	      0.00000000
      8.98000000	      1.56382153	     -3.13401127	   -172.05980542	      0.29347293	      0.91815617	     -0.60123147	     20.42409285	    -14.95344890	    -22.12018734	     22.51081381	      0.39288782	      0.73953888	      0.00000000	      0.00000000	     21.82669494	     -1.80211414	     -5.62206796	     20.91372430	      0.36501335	     -0.54508343	      0.00000000	      0.00000000	    -29.94401398	      2.69293855	    -10.00327621	      0.00000000	    -12.65303026	      0.00000000	     74.76749149	     45.08474252	      0.00000000	      0.00000000	      0.00000000	    -12.65303026	      0.00000000	     74.76749149	     45.08474252	      0.00000000	      0.00000000
      8.98500000	      1.11180024	     -3.28828512	   -172.16866704	      0.29215867	      0.91941745	     -0.60130365	     19.61637242	    -14.93448647	    -22.14037472	     22.04448812	      0.38474890	      0.67687238	      0.00000000	      0.00000000	     20.97287514	     -1.71358686	     -5.83950278	     20.44720274	      0.35687101	     -0.58600046	      0.00000000	      0.00000000	    -29.95842991	      2.52182698	    -10.10608513	      0.00000000	    -12.66890416	      0.00000000	     74.77032359	     45.08248907	      0.00000000	      0.00000000	      0.00000000	    -12.66890416	      0.00000000	     74.77032359	     45.08248907	      0.00000000	      0.00000000
      8.99000000	      0.85527841	     -3.33363630	   -172.24981875	      0.29100502	      0.92000723	     -0.60140224	     19.19502116	    -14.90803570	    -22.24195061	     21.92760935	      0.38270898	      0.76128930	      0.00000000	      0.00000000	     20.57486641	     -1.74403826	     -5.97779495	     20.40784917	      0.35618416	     -0.52562541	      0.00000000	      0.00000000	    -29.68165560	      2.42906695	    -10.10765138	      0.00000000	    -12.68540707	      0.00000000	     74.77324128	     45.08022593	      0.00000000	      0.00000000	      0.00000000	    -12.68540707	      0.00000000	     74.77324128	     45.08022593	      0.00000000	      0.00000000
      8.99500000	      0.50378565	     -3.42323841	   -172.27044441	      0.28976073	      0.92078186	     -0.60133887	     18.61439230	    -14.93194809	    -22.40167256	     21.76169356	      0.37981320	      0.83180456	      0.00000000	      0.00000000	     20.01138987	     -1.68985813	     -6.01755731	     20.25116926	      0.35344958	     -0.48283864	      0.00000000	      0.00000000	    -29.52444347	      2.33204119	    -10.22647444	      0.00000000	    -12.70461715	      0.00000000	     74.77664923	     45.07753886	      0.00000000	      0.00000000	      0.00000000	    -12.70461715	      0.00000000	     74.77664923	     45.07753886	      0.00000000	      0.00000000
      9.00000000	      0.32567310	     -3.38164786	   -172.33588248	      0.28868491	      0.92117910	     -0.60140259	     18.27181784	    -14.81704696	    -22.48962322	     21.59501332	      0.37690408	      0.91753109	      0.00000000	      0.00000000	     19.76608751	     -1.79638143	     -6.12502679	     20.30518418	      0.35439232	     -0.36674325	      0.00000000	      0.00000000	    -29.15970417	      2.31857802	    -10.23169057	      0.00000000	    -12.72147735	      0.00000000	     74.77958614	     45.07534845	      0.00000000	      0.00000000	      0.00000000	    -12.72147735	      0.00000000	     74.77958614	     45.07534845	      0.00000000	      0.00000000
      9.00500000	     -0.00265416	     -3.36438255	   -172.40171633	      0.28751674	      0.92193331	     -0.60129230	     17.71560212	    -14.70730897	    -22.59198932	     21.36971339	      0.37297186	      0.89347100	      0.00000000	      0.00000000	     19.25945877	     -1.86852396	     -6.28580871	     20.18687369	      0.35232741	     -0.28258169	      0.00000000	      0.00000000	    -28.96282814	      2.31672120	    -10.25847711	      0.00000000	    -12.73863018	      0.00000000	     74.78257329	     45.07310742	      0.00000000	      0.00000000	      0.00000000	    -12.73863018	      0.00000000	     74.78257329	     45.07310742	      0.00000000	      0.00000000
      9.01000000	      0.08116756	     -3.27228559	   -172.44364370	      0.28656649	      0.92159767	     -0.60127517	     17.81647807	    -14.64333096	    -22.62137644	     21.53385472	      0.37583667	      1.07423212	      0.00000000	      0.00000000	     19.46960229	     -2.00548338	     -6.30044309	     20.55161947	      0.35869343	     -0.07013619	      0.00000000	      0.00000000	    -28.25637399	      2.31755584	    -10.18158766	      0.00000000	    -12.75299044	      0.00000000	     74.78497373	     45.07153829	      0.00000000	      0.00000000	      0.00000000	    -12.75299044	      0.00000000	     74.78497373	     45.07153829	      0.00000000	      0.00000000
      9.01500000	     -0.39010016	     -3.26184040	   -172.51811088	      0.28532428	      0.92285441	     -0.60125742	     16.94077555	    -14.43726496	    -22.76711136	     20.94886149	      0.36562661	      0.91369429	      0.00000000	      0.00000000	     18.64724717	     -2.07000602	     -6.50895198	     20.12774554	      0.35129543	     -0.07163082	      0.00000000	      0.00000000	    -28.26441273	      2.34168689	    -10.26600237	      0.00000000	    -12.76872352	      0.00000000	     74.78766312	     45.06962193	      0.00000000	      0.00000000	      0.00000000	    -12.76872352	      0.00000000	     74.78766312	     45.06962193	      0.00000000	      0.00000000
      9.02000000	     -0.66359477	     -3.31465964	   -172.58765749	      0.28417553	      0.92349099	     -0.60125667	     16.51003042	    -14.44486883	    -22.92999201	     20.85827381	      0.36404555	      0.95858389	      0.00000000	      0.00000000	     18.16478536	     -2.06274969	     -6.66793644	     19.96363701	      0.34843120	     -0.01746108	      0.00000000	      0.00000000	    -28.03054584	      2.24222203	    -10.24473320	      0.00000000	    -12.78655192	      0.00000000	     74.79070955	     45.06744437	      0.00000000	      0.00000000	      0.00000000	    -12.78655192	      0.00000000	     74.79070955	     45.06744437	      0.00000000	      0.00000000
      9.02500000	     -0.82349163	     -3.27552667	   -172.71357346	      0.28304929	      0.92389873	     -0.60138585	     16.22234670	    -14.32612791	    -22.94559652	     20.72701698	      0.36175469	      0.97231743	      0.00000000	      0.00000000	     17.88109345	     -2.17424287	     -6.88028367	     19.92935614	      0.34783288	      0.08143470	      0.00000000	      0.00000000	    -27.65143444	      2.19531487	    -10.20191720	      0.00000000	    -12.80422109	      0.00000000	     74.79369643	     45.06537275	      0.00000000	      0.00000000	      0.00000000	    -12.80422109	      0.00000000	     74.79369643	     45.06537275	      0.00000000	      0.00000000
      9.03000000	     -1.03246516	     -3.28726146	   -172.86284043	      0.28189661	      0.92440781	     -0.60157073	     15.91008583	    -14.27189798	    -23.01205288	     20.66106531	      0.36060362	      0.99058724	      0.00000000	      0.00000000	     17.51021192	     -2.24358942	     -7.14444224	     19.85289117	      0.34649832	      0.16056797	      0.00000000	      0.00000000	    -27.33838022	      2.08791030	    -10.09658503	      0.00000000	    -12.82384920	      0.00000000	     74.79700314	     45.06309580	      0.00000000	      0.00000000	      0.00000000	    -12.82384920	      0.00000000	     74.79700314	     45.06309580	      0.00000000	      0.00000000
      9.03500000	     -0.91377214	     -3.22163434	   -172.83203372	      0.28086753	      0.92409015	     -0.60128551	     16.01550420	    -14.27045994	    -23.06025374	     20.80179677	      0.36305984	      1.17491722	      0.00000000	      0.00000000	     17.74400905	     -2.31813494	     -7.18981851	     20.19338015	      0.35244097	      0.39374882	      0.00000000	      0.00000000	    -26.63724146	      2.10086620	    -10.02728503	      0.00000000	    -12.83763035	      0.00000000	     74.79923011	     45.06175465	      0.00000000	      0.00000000	      0.00000000	    -12.83763035	      0.00000000	     74.79923011	     45.06175465	      0.00000000	      0.00000000
